<svg width="150" height="150" viewBox="0 0 150 150" fill="none" xmlns="http://www.w3.org/2000/svg">
<rect width="150" height="150" fill="#FB7474"/>
<path d="M39.2812 63.9688C39.6771 64.2604 40.0729 64.4792 40.4688 64.625C40.8854 64.75 41.2604 64.8333 41.5938 64.875C41.9688 64.9375 42.3438 64.9479 42.7188 64.9062C43.0729 64.8646 43.4375 64.7396 43.8125 64.5312C44.1875 64.3229 44.625 64.1042 45.125 63.875C45.625 63.6458 46.2083 63.4479 46.875 63.2812C47.5625 63.0938 48.3854 63 49.3438 63C49.7604 63 50.1979 63.0833 50.6562 63.25C51.1354 63.4167 51.5938 63.6354 52.0312 63.9062C52.4688 64.1562 52.8646 64.4375 53.2188 64.75C53.5938 65.0625 53.875 65.375 54.0625 65.6875C54.2708 66 54.4167 66.5104 54.5 67.2188C54.5833 67.9062 54.6146 68.6562 54.5938 69.4688C54.5729 70.2812 54.5 71.0833 54.375 71.875C54.2708 72.6667 54.1146 73.3125 53.9062 73.8125C53.6562 74.25 53.1771 74.8125 52.4688 75.5C51.8646 76.0833 50.9583 76.8333 49.75 77.75C48.5417 78.6667 46.9167 79.7604 44.875 81.0312C46.0833 81.0104 47.0938 80.9792 47.9062 80.9375C48.7396 80.875 49.4167 80.8125 49.9375 80.75C50.5417 80.6667 51.0208 80.5833 51.375 80.5C51.6875 80.375 52.0208 80.1979 52.375 79.9688C52.6667 79.7604 52.9792 79.4896 53.3125 79.1562C53.6667 78.8229 54.0104 78.3854 54.3438 77.8438C54.4062 78.9688 54.4688 79.8542 54.5312 80.5C54.5729 80.875 54.6042 81.1979 54.625 81.4688C54.6458 81.7188 54.6667 82.0104 54.6875 82.3438C54.7083 82.6354 54.7188 82.9688 54.7188 83.3438C54.7396 83.7188 54.7708 84.1146 54.8125 84.5312C53.7708 84.2604 52.8229 84.0521 51.9688 83.9062C51.1146 83.7396 50.3854 83.625 49.7812 83.5625C49.0729 83.4792 48.4375 83.4375 47.875 83.4375C47.2917 83.4583 46.6458 83.5104 45.9375 83.5938C45.3125 83.6771 44.5625 83.8021 43.6875 83.9688C42.8333 84.1146 41.8646 84.3333 40.7812 84.625C40.6979 84.3958 40.625 84.1667 40.5625 83.9375C40.5 83.6875 40.4479 83.4479 40.4062 83.2188C40.3438 82.9688 40.2917 82.7188 40.25 82.4688C40.2083 82.2188 40.1667 81.9792 40.125 81.75C40.0833 81.5417 40.0521 81.3229 40.0312 81.0938C40.0104 80.8646 39.9896 80.6458 39.9688 80.4375C41.6354 79.375 42.9896 78.4167 44.0312 77.5625C45.0729 76.6875 45.8958 75.9479 46.5 75.3438C47.1875 74.6354 47.7083 73.9896 48.0625 73.4062C48.4167 72.6979 48.7083 71.9167 48.9375 71.0625C49.1667 70.2083 49.2396 69.4167 49.1562 68.6875C49.0938 67.9583 48.8438 67.3646 48.4062 66.9062C47.9688 66.4271 47.2708 66.2188 46.3125 66.2812C45.6875 66.3229 45.0938 66.5417 44.5312 66.9375C43.9896 67.3333 43.4896 67.8125 43.0312 68.375C42.5729 68.9375 42.1667 69.5417 41.8125 70.1875C41.4583 70.8125 41.1562 71.4062 40.9062 71.9688C40.6771 72.5312 40.4896 73 40.3438 73.375C40.2188 73.75 40.1562 73.9479 40.1562 73.9688C40.1354 74.0104 40.1042 73.8542 40.0625 73.5C40.0417 73.1458 40.0104 72.7083 39.9688 72.1875C39.9479 71.6458 39.9167 71.0833 39.875 70.5C39.8333 69.9167 39.7917 69.4271 39.75 69.0312C39.7292 68.7188 39.6979 68.3125 39.6562 67.8125C39.5938 67 39.4688 65.7188 39.2812 63.9688ZM65.7812 63.125C66.7396 63.1042 67.7083 63.3229 68.6875 63.7812C69.6667 64.2396 70.5521 64.9375 71.3438 65.875C72.1354 66.7917 72.7812 67.9479 73.2812 69.3438C73.7812 70.7396 74.0417 72.375 74.0625 74.25C74.0833 75.5 73.9896 76.6354 73.7812 77.6562C73.5729 78.6771 73.2917 79.5938 72.9375 80.4062C72.5833 81.1979 72.1771 81.9062 71.7188 82.5312C71.2812 83.1354 70.8333 83.6562 70.375 84.0938C69.9167 84.5104 69.4792 84.8438 69.0625 85.0938C68.6458 85.3438 68.2917 85.5104 68 85.5938C67.625 85.7188 67.1771 85.8333 66.6562 85.9375C66.1354 86.0208 65.5938 86.0729 65.0312 86.0938C64.4688 86.1354 63.9062 86.1042 63.3438 86C62.8021 85.9167 62.3229 85.75 61.9062 85.5C61.4896 85.25 61 84.8958 60.4375 84.4375C59.8958 83.9583 59.375 83.3125 58.875 82.5C58.375 81.6667 57.9479 80.625 57.5938 79.375C57.2396 78.125 57.0625 76.5938 57.0625 74.7812C57.0625 72.9688 57.2708 71.3438 57.6875 69.9062C58.125 68.4688 58.7188 67.25 59.4688 66.25C60.2396 65.25 61.1562 64.4896 62.2188 63.9688C63.3021 63.4271 64.4896 63.1458 65.7812 63.125ZM61.375 74.75C61.3542 75.9792 61.4271 77.0521 61.5938 77.9688C61.7604 78.8854 61.9583 79.6562 62.1875 80.2812C62.4167 80.9062 62.6458 81.4062 62.875 81.7812C63.125 82.1354 63.3125 82.3854 63.4375 82.5312C63.5625 82.7188 63.7917 82.8438 64.125 82.9062C64.4583 82.9688 64.8125 83 65.1875 83C65.5625 82.9792 65.9271 82.9271 66.2812 82.8438C66.6354 82.7396 66.9062 82.6042 67.0938 82.4375C67.1979 82.3333 67.3438 82.0729 67.5312 81.6562C67.7396 81.2396 67.9375 80.6979 68.125 80.0312C68.3333 79.3646 68.5208 78.5938 68.6875 77.7188C68.8542 76.8229 68.9688 75.8646 69.0312 74.8438C69.0938 73.6979 69.0938 72.6458 69.0312 71.6875C68.9688 70.7083 68.875 69.8542 68.75 69.125C68.625 68.3958 68.4792 67.7917 68.3125 67.3125C68.1458 66.8333 67.9688 66.5104 67.7812 66.3438C67.5104 66.0938 67.1771 65.9167 66.7812 65.8125C66.4062 65.7083 66.0208 65.6667 65.625 65.6875C65.25 65.7083 64.8854 65.7812 64.5312 65.9062C64.1979 66.0312 63.9375 66.1979 63.75 66.4062C63.375 66.8229 63.0417 67.2604 62.75 67.7188C62.4583 68.1771 62.2188 68.7292 62.0312 69.375C61.8438 70.0208 61.6875 70.7812 61.5625 71.6562C61.4583 72.5104 61.3958 73.5417 61.375 74.75ZM76 63.9688C76.3958 64.2604 76.7917 64.4792 77.1875 64.625C77.6042 64.75 77.9792 64.8333 78.3125 64.875C78.6875 64.9375 79.0625 64.9479 79.4375 64.9062C79.7917 64.8646 80.1562 64.7396 80.5312 64.5312C80.9062 64.3229 81.3438 64.1042 81.8438 63.875C82.3438 63.6458 82.9271 63.4479 83.5938 63.2812C84.2812 63.0938 85.1042 63 86.0625 63C86.4792 63 86.9167 63.0833 87.375 63.25C87.8542 63.4167 88.3125 63.6354 88.75 63.9062C89.1875 64.1562 89.5833 64.4375 89.9375 64.75C90.3125 65.0625 90.5938 65.375 90.7812 65.6875C90.9896 66 91.1354 66.5104 91.2188 67.2188C91.3021 67.9062 91.3333 68.6562 91.3125 69.4688C91.2917 70.2812 91.2188 71.0833 91.0938 71.875C90.9896 72.6667 90.8333 73.3125 90.625 73.8125C90.375 74.25 89.8958 74.8125 89.1875 75.5C88.5833 76.0833 87.6771 76.8333 86.4688 77.75C85.2604 78.6667 83.6354 79.7604 81.5938 81.0312C82.8021 81.0104 83.8125 80.9792 84.625 80.9375C85.4583 80.875 86.1354 80.8125 86.6562 80.75C87.2604 80.6667 87.7396 80.5833 88.0938 80.5C88.4062 80.375 88.7396 80.1979 89.0938 79.9688C89.3854 79.7604 89.6979 79.4896 90.0312 79.1562C90.3854 78.8229 90.7292 78.3854 91.0625 77.8438C91.125 78.9688 91.1875 79.8542 91.25 80.5C91.2917 80.875 91.3229 81.1979 91.3438 81.4688C91.3646 81.7188 91.3854 82.0104 91.4062 82.3438C91.4271 82.6354 91.4375 82.9688 91.4375 83.3438C91.4583 83.7188 91.4896 84.1146 91.5312 84.5312C90.4896 84.2604 89.5417 84.0521 88.6875 83.9062C87.8333 83.7396 87.1042 83.625 86.5 83.5625C85.7917 83.4792 85.1562 83.4375 84.5938 83.4375C84.0104 83.4583 83.3646 83.5104 82.6562 83.5938C82.0312 83.6771 81.2812 83.8021 80.4062 83.9688C79.5521 84.1146 78.5833 84.3333 77.5 84.625C77.4167 84.3958 77.3438 84.1667 77.2812 83.9375C77.2188 83.6875 77.1667 83.4479 77.125 83.2188C77.0625 82.9688 77.0104 82.7188 76.9688 82.4688C76.9271 82.2188 76.8854 81.9792 76.8438 81.75C76.8021 81.5417 76.7708 81.3229 76.75 81.0938C76.7292 80.8646 76.7083 80.6458 76.6875 80.4375C78.3542 79.375 79.7083 78.4167 80.75 77.5625C81.7917 76.6875 82.6146 75.9479 83.2188 75.3438C83.9062 74.6354 84.4271 73.9896 84.7812 73.4062C85.1354 72.6979 85.4271 71.9167 85.6562 71.0625C85.8854 70.2083 85.9583 69.4167 85.875 68.6875C85.8125 67.9583 85.5625 67.3646 85.125 66.9062C84.6875 66.4271 83.9896 66.2188 83.0312 66.2812C82.4062 66.3229 81.8125 66.5417 81.25 66.9375C80.7083 67.3333 80.2083 67.8125 79.75 68.375C79.2917 68.9375 78.8854 69.5417 78.5312 70.1875C78.1771 70.8125 77.875 71.4062 77.625 71.9688C77.3958 72.5312 77.2083 73 77.0625 73.375C76.9375 73.75 76.875 73.9479 76.875 73.9688C76.8542 74.0104 76.8229 73.8542 76.7812 73.5C76.7604 73.1458 76.7292 72.7083 76.6875 72.1875C76.6667 71.6458 76.6354 71.0833 76.5938 70.5C76.5521 69.9167 76.5104 69.4271 76.4688 69.0312C76.4479 68.7188 76.4167 68.3125 76.375 67.8125C76.3125 67 76.1875 65.7188 76 63.9688ZM102.5 63.125C103.458 63.1042 104.427 63.3229 105.406 63.7812C106.385 64.2396 107.271 64.9375 108.062 65.875C108.854 66.7917 109.5 67.9479 110 69.3438C110.5 70.7396 110.76 72.375 110.781 74.25C110.802 75.5 110.708 76.6354 110.5 77.6562C110.292 78.6771 110.01 79.5938 109.656 80.4062C109.302 81.1979 108.896 81.9062 108.438 82.5312C108 83.1354 107.552 83.6562 107.094 84.0938C106.635 84.5104 106.198 84.8438 105.781 85.0938C105.365 85.3438 105.01 85.5104 104.719 85.5938C104.344 85.7188 103.896 85.8333 103.375 85.9375C102.854 86.0208 102.312 86.0729 101.75 86.0938C101.188 86.1354 100.625 86.1042 100.062 86C99.5208 85.9167 99.0417 85.75 98.625 85.5C98.2083 85.25 97.7188 84.8958 97.1562 84.4375C96.6146 83.9583 96.0938 83.3125 95.5938 82.5C95.0938 81.6667 94.6667 80.625 94.3125 79.375C93.9583 78.125 93.7812 76.5938 93.7812 74.7812C93.7812 72.9688 93.9896 71.3438 94.4062 69.9062C94.8438 68.4688 95.4375 67.25 96.1875 66.25C96.9583 65.25 97.875 64.4896 98.9375 63.9688C100.021 63.4271 101.208 63.1458 102.5 63.125ZM98.0938 74.75C98.0729 75.9792 98.1458 77.0521 98.3125 77.9688C98.4792 78.8854 98.6771 79.6562 98.9062 80.2812C99.1354 80.9062 99.3646 81.4062 99.5938 81.7812C99.8438 82.1354 100.031 82.3854 100.156 82.5312C100.281 82.7188 100.51 82.8438 100.844 82.9062C101.177 82.9688 101.531 83 101.906 83C102.281 82.9792 102.646 82.9271 103 82.8438C103.354 82.7396 103.625 82.6042 103.812 82.4375C103.917 82.3333 104.062 82.0729 104.25 81.6562C104.458 81.2396 104.656 80.6979 104.844 80.0312C105.052 79.3646 105.24 78.5938 105.406 77.7188C105.573 76.8229 105.688 75.8646 105.75 74.8438C105.812 73.6979 105.812 72.6458 105.75 71.6875C105.688 70.7083 105.594 69.8542 105.469 69.125C105.344 68.3958 105.198 67.7917 105.031 67.3125C104.865 66.8333 104.688 66.5104 104.5 66.3438C104.229 66.0938 103.896 65.9167 103.5 65.8125C103.125 65.7083 102.74 65.6667 102.344 65.6875C101.969 65.7083 101.604 65.7812 101.25 65.9062C100.917 66.0312 100.656 66.1979 100.469 66.4062C100.094 66.8229 99.7604 67.2604 99.4688 67.7188C99.1771 68.1771 98.9375 68.7292 98.75 69.375C98.5625 70.0208 98.4062 70.7812 98.2812 71.6562C98.1771 72.5104 98.1146 73.5417 98.0938 74.75Z" fill="white"/>
</svg>
